<svg xmlns="http://www.w3.org/2000/svg" xml:space="preserve" width="1500" height="349" data-id="lg_qPovF587vpiFwlRvDe" data-version="1" viewBox="0 0 1500 349"><g data-padding="20"><g transform="translate(10 6.254)scale(.96416)"><rect width="587.265" height="212.44" x="219.535" y="-106.267" fill="none" rx="0" ry="0" transform="matrix(.95 0 0 .95 280 248.21)"/><path fill="#fff" d="M509.167 304.273v-125.02h19.645v52.687l25.005-52.687h19.645l-23.398 45.894 23.76 79.126h-20.54l-16.615-55.728-7.856 15.894v39.834Zm68.76 0 20.359-125.02h26.61l20.367 125.02h-19.646l-3.572-24.823v.35H599.72l-3.572 24.473Zm24.11-41.44h17.68l-8.75-61.798h-.36Zm48.394 41.44 20.359-125.02h26.609l20.359 125.02H698.11l-3.572-24.825v.352h-22.325l-3.572 24.472Zm24.11-41.44h17.68l-8.75-61.798h-.36Zm52.688 41.44v-125.02h28.035l12.502 89.48h.36l12.502-89.48h28.044v125.02H790.09v-94.659h-.351l-14.288 94.659h-16.435l-14.288-94.659h-.351v94.659Zm96.092 0v-125.02h19.646v52.687l25.004-52.687h19.646l-23.398 45.894 23.759 79.126h-20.54l-16.614-55.728-7.857 15.893v39.835Zm68.762 0 20.358-125.02h26.62l20.358 125.02h-19.646l-3.572-24.825v.352h-22.325l-3.572 24.472Zm24.11-41.44h17.68l-8.75-61.798h-.351Zm52.678 41.44v-125.02h29.117q15.182 0 22.145 7.049 6.964 7.059 6.964 21.708v7.676q0 19.465-12.863 24.643v.36q7.144 2.147 10.098 8.75 2.945 6.612 2.945 17.68v21.972q0 5.359.352 8.664.36 3.298 1.786 6.518h-19.998q-1.073-3.04-1.434-5.72-.352-2.678-.352-9.641v-22.857q0-8.58-2.774-11.97-2.764-3.392-9.547-3.392h-6.793v53.58Zm19.646-71.44h7.144q5.9 0 8.845-3.04 2.945-3.03 2.945-10.175v-9.652q0-6.783-2.413-9.823-2.413-3.03-7.591-3.03h-8.93Z"/><path fill="#ffbf5e" d="m792.029 71.205-3.36-3.36a2.4 2.4 0 0 0-3.168-.216l-13.584 10.56-1.872-1.895a2.4 2.4 0 0 0-3.984.96l-6.768 20.303a2.4 2.4 0 0 0 3.024 3.048l20.328-6.792a2.4 2.4 0 0 0 .936-3.96l-1.896-1.895 10.56-13.56a2.4 2.4 0 0 0-.192-3.193m-15.432 15.48a2.4 2.4 0 0 0 .192 3.168l.648.648-12.096 4.032 4.032-12.096.648.648a2.4 2.4 0 0 0 3.168.192l13.584-10.56.384.384Zm-40.056-17.16 3.384 3.384a2.4 2.4 0 0 0 3.168.216l13.584-10.56 1.872 1.872a2.4 2.4 0 0 0 3.984-.936l6.768-20.328a2.4 2.4 0 0 0-3.024-3.024l-20.328 6.768a2.4 2.4 0 0 0-.96 3.984l1.92 1.872-10.584 13.584a2.4 2.4 0 0 0 .216 3.168m15.456-15.48a2.4 2.4 0 0 0-.216-3.168l-.648-.624 12.096-4.032-4.032 12.072-.624-.623a2.4 2.4 0 0 0-3.168-.217l-13.584 10.56-.384-.384Zm-56.352 68.04 3.48 1.728v17.712a2.4 2.4 0 0 0 2.4 2.4h24a2.4 2.4 0 0 0 2.4-2.4v-17.712l3.48-1.728a2.4 2.4 0 0 0 1.32-2.16v-9.6a19.2 19.2 0 0 0-10.704-17.184 14.4 14.4 0 0 0 5.904-11.616 14.4 14.4 0 1 0-28.8 0 14.4 14.4 0 0 0 5.904 11.616 19.2 19.2 0 0 0-10.704 17.184v9.6a2.4 2.4 0 0 0 1.32 2.16m8.664-37.872a9.6 9.6 0 1 1 18.432-5.376 9.6 9.6 0 0 1-18.432 5.376m-5.184 26.112a14.4 14.4 0 1 1 28.8 0v8.112l-3.48 1.728a2.4 2.4 0 0 0-1.32 2.16v16.8h-19.2v-16.8a2.4 2.4 0 0 0-1.32-2.16l-3.48-1.728Zm2.4-69.6c0 5.76 8.352 18.144 10.032 20.568a2.4 2.4 0 0 0 3.936 0c1.68-2.424 10.032-14.808 10.032-20.568a12 12 0 0 0-24 0m19.2 0c0 2.64-3.744 9.456-7.2 14.88-3.456-5.424-7.2-12.24-7.2-14.88a7.2 7.2 0 0 1 14.4 0m106.896 23.616a14.4 14.4 0 0 0 5.904-11.616 14.4 14.4 0 0 0-28.8 0 14.4 14.4 0 0 0 5.904 11.616 19.2 19.2 0 0 0-10.704 17.184v9.6a2.4 2.4 0 0 0 1.32 2.16l3.48 1.728v17.712a2.4 2.4 0 0 0 2.4 2.4h24a2.4 2.4 0 0 0 2.4-2.4V95.014l3.48-1.728a2.4 2.4 0 0 0 1.32-2.16v-9.6a19.2 19.2 0 0 0-10.704-17.184m-17.712-8.928a9.6 9.6 0 1 1 18.432-5.376 9.6 9.6 0 0 1-18.432 5.376m23.616 34.224-3.48 1.727a2.4 2.4 0 0 0-1.32 2.16v16.8h-19.2v-16.8a2.4 2.4 0 0 0-1.32-2.16l-3.48-1.727v-8.113a14.4 14.4 0 0 1 28.8 0Zm-14.4-56.112a2.4 2.4 0 0 0 1.968-1.033c1.68-2.424 10.032-14.808 10.032-20.568a12 12 0 1 0-24 0c0 5.76 8.352 18.144 10.032 20.568a2.4 2.4 0 0 0 1.968 1.032m0-28.8a7.2 7.2 0 0 1 7.2 7.2c0 2.64-3.744 9.456-7.2 14.88-3.456-5.424-7.2-12.24-7.2-14.88a7.2 7.2 0 0 1 7.2-7.2"/></g><path fill="transparent" stroke="transparent" d="M471 0h558v349H471z"/></g></svg>